#!OML:ASF H:\Terrain\Patient Classification 1\Terrain2\Thursday\justin.ASF
:FULLY-SPECIFIED
:DEGREES
1151
root 12.9753 22.3156 10.4969 135.098 -70.5469 -143.498
lowerback 4.11728 1.69338 14.8986
upperback 2.6473 2.30712 6.29272
thorax 0.864998 1.11214 -1.75673
lowerneck -9.93145 1.31491 -7.79612
upperneck 42.1501 0.50053 2.34712
head 16.9593 -1.60535 2.28962
rclavicle -2.99171e-014 -1.35174e-014
rhumerus -34.8925 -9.4597 -72.0285
rradius 33.9353
rwrist -14.4021
rhand -22.2761 11.0436
rfingers 7.12502
rthumb 4.14219 -18.8958
lclavicle -2.99171e-014 -1.35174e-014
lhumerus -48.5395 18.9129 66.7109
lradius 19.936
lwrist -6.46227
lhand -13.3263 20.4659
lfingers 7.12502
lthumb 12.7786 50.0549
rfemur 26.2042 0.443493 32.4478
rtibia 24.7659
rfoot -30.634 5.86202
rtoes 1.9131
lfemur -40.0559 10.6341 -0.00276944
ltibia 34.6647
lfoot 23.7003 5.81316
ltoes 9.25762
1152
root 12.8112 22.2785 10.5127 137.241 -70.8162 -145.68
lowerback 3.68276 1.83376 14.3161
upperback 2.57356 2.43182 6.05464
thorax 1.02413 1.18956 -1.68687
lowerneck -9.91026 1.36704 -7.77573
upperneck 42.3599 0.468392 2.52579
head 17.0716 -1.61021 2.36297
rclavicle 3.3048e-014 5.80451e-014
rhumerus -35.1258 -9.6783 -71.8139
rradius 33.9304
rwrist -14.5229
rhand -21.7921 11.1696
rfingers 7.12502
rthumb 4.60954 -18.7602
lclavicle 3.3048e-014 5.80451e-014
lhumerus -49.1744 19.368 65.7625
lradius 19.6555
lwrist -6.88827
lhand -12.9765 19.9438
lfingers 7.12502
lthumb 13.1159 49.5113
rfemur 26.9517 0.603081 31.2804
rtibia 24.4155
rfoot -30.8954 5.82654
rtoes -0.787363
lfemur -40.0386 10.2833 -0.481016
ltibia 34.3727
lfoot 23.6287 6.18804
ltoes 9.36168
1153
root 12.6527 22.3184 10.5134 137.529 -70.3943 -146.099
lowerback 3.41384 1.95591 14.5015
upperback 2.56397 2.54126 6.07995
thorax 1.19042 1.25294 -1.7496
lowerneck -9.91072 1.39096 -7.74765
upperneck 42.5298 0.467143 2.53205
head 17.1691 -1.62209 2.36085
rclavicle -3.10601e-014 4.77083e-015
rhumerus -35.3612 -10.1072 -71.5745
rradius 33.9435
rwrist -14.2859
rhand -21.5493 11.2003
rfingers 7.12502
rthumb 4.84396 -18.7243
lclavicle -3.10601e-014 4.77083e-015
lhumerus -49.7407 19.8246 64.8886
lradius 19.2966
lwrist -7.26377
lhand -12.8336 19.5459
lfingers 7.12502
lthumb 13.2536 49.1045
rfemur 27.9789 0.704359 31.1322
rtibia 23.5504
rfoot -30.6783 5.56327
rtoes -3.66953
lfemur -38.8338 6.37977 2.53695
ltibia 34.216
lfoot 18.2286 15.2512
ltoes 33.146
1154
root 12.4871 22.1871 10.5218 137.722 -70.0067 -146.541
lowerback 3.27946 1.9241 14.4631
upperback 2.572 2.45675 6.23922
thorax 1.25555 1.20747 -1.55642
lowerneck -9.86699 1.53384 -7.8022
upperneck 42.7205 0.713591 2.40009
head 17.2509 -1.57019 2.34854
rclavicle 3.37934e-014 -1.82882e-014
rhumerus -35.4414 -9.85889 -71.45
rradius 33.7841
rwrist -13.8741
rhand -22.2928 11.4354
rfingers 7.12502
rthumb 4.12605 -18.5044
lclavicle 3.37934e-014 -1.82882e-014
lhumerus -50.6585 20.4472 64.0098
lradius 19.16
lwrist -7.38923
lhand -12.6957 20.2113
lfingers 7.12502
lthumb 13.3865 49.7612
rfemur 29.1874 1.0948 31.1425
rtibia 23.1361
rfoot -30.6855 5.53111
rtoes -4.1225
lfemur -39.3551 14.7066 -2.55047
ltibia 33.9211
lfoot 21.7233 -13.1691
ltoes -42.6863
1155
root 12.3297 22.1997 10.5327 137.96 -69.6006 -146.861
lowerback 3.18596 1.96767 14.525
upperback 2.46893 2.49996 6.38153
thorax 1.2021 1.21702 -1.43941
lowerneck -9.76082 1.64112 -7.97416
upperneck 42.8811 0.849807 2.47561
head 17.3038 -1.55214 2.43443
rclavicle -1.72943e-014 -4.77083e-015
rhumerus -35.6644 -9.83417 -71.1982
rradius 33.609
rwrist -13.5393
rhand -22.9596 11.7799
rfingers 7.12502
rthumb 3.48215 -18.1714
lclavicle -1.72943e-014 -4.77083e-015
lhumerus -51.461 20.2768 63.6896
lradius 19.2157
lwrist -6.84183
lhand -13.2748 21.1536
lfingers 7.12502
lthumb 12.8283 50.7394
rfemur 30.034 1.68676 31.3225
rtibia 22.646
rfoot -30.1475 5.80106
rtoes -3.90018
lfemur -37.985 4.6728 4.14508
ltibia 33.5921
lfoot 16.9217 17.6228
ltoes 34.0641
1156
root 12.1665 22.1364 10.5513 137.818 -68.8403 -146.582
lowerback 2.9777 2.20899 15.3039
upperback 2.2976 2.80199 6.41683
thorax 1.22324 1.36465 -1.80989
lowerneck -9.59964 1.61136 -7.99579
upperneck 42.9635 0.692458 2.66022
head 17.3184 -1.60735 2.49581
rclavicle 2.88238e-015 -1.35174e-014
rhumerus -36.1764 -10.4762 -70.8842
rradius 33.646
rwrist -13.2101
rhand -22.7562 11.8228
rfingers 7.12502
rthumb 3.67849 -18.1252
lclavicle 2.88238e-015 -1.35174e-014
lhumerus -52.0184 20.0638 63.1305
lradius 19.1267
lwrist -6.73403
lhand -14.5762 21.7146
lfingers 7.12502
lthumb 11.5735 51.3751
rfemur 30.3838 2.17872 31.6937
rtibia 22.9271
rfoot -29.9585 6.37226
rtoes -2.83329
lfemur -37.694 4.70662 4.91849
ltibia 32.8658
lfoot 18.2753 17.812
ltoes 31.7577
1157
root 11.9939 22.0845 10.5709 138.407 -68.366 -147.162
lowerback 2.73751 2.35907 15.6915
upperback 2.17091 2.97503 6.34532
thorax 1.27657 1.45385 -2.08137
lowerneck -9.39207 1.62473 -8.02882
upperneck 42.993 0.645465 2.73484
head 17.2836 -1.63299 2.52427
rclavicle -5.14852e-014 -2.78299e-014
rhumerus -36.647 -10.6361 -70.7561
rradius 33.7333
rwrist -13.035
rhand -22.4169 11.7054
rfingers 7.12502
rthumb 4.0062 -18.2367
lclavicle -5.14852e-014 -2.78299e-014
lhumerus -52.7518 20.2361 62.2537
lradius 19.0174
lwrist -6.96941
lhand -15.0104 21.5368
lfingers 7.12502
lthumb 11.1547 51.2203
rfemur 30.9799 2.5471 31.4723
rtibia 22.9342
rfoot -29.7107 7.08314
rtoes -1.03348
lfemur -36.9043 4.20915 5.54233
ltibia 31.8209
lfoot 17.9345 19.4429
ltoes 35.9273
1158
root 11.8156 22.0155 10.5849 139.703 -68.27 -148.561
lowerback 2.47873 2.37343 15.3555
upperback 2.09837 2.95802 6.26476
thorax 1.32452 1.4482 -1.98055
lowerneck -9.29606 1.73767 -8.09643
upperneck 43.0659 0.795199 2.75572
head 17.2873 -1.59393 2.5672
rclavicle -1.89839e-014 -4.69132e-014
rhumerus -36.9859 -10.5379 -70.6595
rradius 33.8488
rwrist -12.8098
rhand -22.4994 11.5285
rfingers 7.12502
rthumb 3.92655 -18.4151
lclavicle -1.89839e-014 -4.69132e-014
lhumerus -53.5132 20.1264 61.821
lradius 19.0217
lwrist -6.6103
lhand -14.6288 21.205
lfingers 7.12502
lthumb 11.5228 50.8683
rfemur 31.4896 2.8743 30.7916
rtibia 23.4171
rfoot -30.2369 6.71091
rtoes -4.47258
lfemur -36.2791 4.6728 5.03509
ltibia 30.9177
lfoot 19.2581 19.3603
ltoes 35.3653
1159
root 11.6279 21.9183 10.5994 140.792 -68.1467 -149.667
lowerback 2.06736 2.36509 14.9463
upperback 2.06606 2.86339 6.32124
thorax 1.48101 1.40525 -1.68956
lowerneck -9.32246 1.89877 -8.01671
upperneck 43.1242 1.09908 2.55643
head 17.3069 -1.492 2.50851
rclavicle 2.55438e-014 -3.18055e-015
rhumerus -37.2109 -10.4453 -70.4431
rradius 33.9756
rwrist -12.4585
rhand -22.7502 11.4303
rfingers 7.12502
rthumb 3.68431 -18.5176
lclavicle 2.55438e-014 -3.18055e-015
lhumerus -54.2803 20.0957 61.6153
lradius 19.1067
lwrist -6.09981
lhand -14.3826 21.4875
lfingers 7.12502
lthumb 11.7601 51.1374
rfemur 32.1623 3.21261 30.2476
rtibia 23.6024
rfoot -30.7971 5.99711
rtoes -9.42347
lfemur -36.1163 6.59682 3.79184
ltibia 30.2805
lfoot 23.9229 14.7833
ltoes 22.9082
1160
root 11.4424 21.8418 10.6182 141.414 -67.9662 -150.246
lowerback 1.69337 2.40167 14.7239
upperback 2.00923 2.83244 6.47218
thorax 1.60766 1.38764 -1.39959
lowerneck -9.35402 1.97213 -7.93002
upperneck 43.2013 1.33068 2.19567
head 17.3523 -1.44111 2.36284
rclavicle -5.96354e-015 5.40694e-014
rhumerus -37.4542 -10.5604 -70.002
rradius 34.0406
rwrist -12.3271
rhand -22.4226 11.3934
rfingers 7.12502
rthumb 4.00072 -18.5488
lclavicle -5.96354e-015 5.40694e-014
lhumerus -55.1014 20.3675 61.2584
lradius 19.2085
lwrist -6.03233
lhand -14.2267 21.8422
lfingers 7.12502
lthumb 11.9105 51.4834
rfemur 32.8868 3.53157 29.8778
rtibia 23.4536
rfoot -30.6306 6.43534
rtoes -9.39555
lfemur -36.0044 7.7659 3.181
ltibia 30.064
lfoot 26.8963 9.62752
ltoes 9.45262
1161
root 11.2645 21.8038 10.6355 141.597 -67.6366 -150.358
lowerback 1.41848 2.53413 14.9401
upperback 1.9171 2.95839 6.51252
thorax 1.69367 1.45112 -1.459
lowerneck -9.33741 1.93353 -7.91512
upperneck 43.3106 1.27131 2.13093
head 17.4195 -1.48427 2.32008
rclavicle 5.27773e-014 4.45278e-014
rhumerus -37.8347 -10.7915 -69.701
rradius 34.1214
rwrist -12.3063
rhand -22.2847 11.2399
rfingers 7.12502
rthumb 4.13382 -18.6997
lclavicle 5.27773e-014 4.45278e-014
lhumerus -55.6199 20.2796 60.9201
lradius 19.1126
lwrist -6.31697
lhand -14.2392 21.5761
lfingers 7.12502
lthumb 11.8985 51.218
rfemur 33.4019 3.76945 29.6596
rtibia 23.4326
rfoot -30.3017 7.39214
rtoes -7.89798
lfemur -35.4319 7.11861 3.89376
ltibia 29.8454
lfoot 26.7908 11.0341
ltoes 13.3756
1162
root 11.0832 21.7796 10.6541 141.509 -67.2514 -150.081
lowerback 1.01966 2.59793 15.4558
upperback 1.84996 2.9568 6.5236
thorax 1.88068 1.46035 -1.70157
lowerneck -9.33153 1.96739 -7.99471
upperneck 43.2596 1.3238 2.1978
head 17.3814 -1.46505 2.37264
rclavicle 1.99779e-014 3.97569e-014
rhumerus -38.1198 -10.4918 -69.7385
rradius 34.2904
rwrist -12.2608
rhand -22.7078 11.1313
rfingers 7.12502
rthumb 3.72526 -18.8159
lclavicle 1.99779e-014 3.97569e-014
lhumerus -56.0513 19.9919 60.7522
lradius 19.059
lwrist -6.20045
lhand -13.8677 20.775
lfingers 7.12502
lthumb 12.2567 50.3959
rfemur 33.8601 3.88217 29.5164
rtibia 23.3139
rfoot -30.1765 8.02072
rtoes -7.88423
lfemur -34.7963 5.53503 5.24482
ltibia 29.9104
lfoot 24.7235 15.7788
ltoes 24.1848
1163
root 10.8967 21.6777 10.6841 141.495 -66.8859 -149.777
lowerback 0.558116 2.59932 15.9883
upperback 1.78845 2.8497 6.55267
thorax 2.0941 1.41861 -1.93367
lowerneck -9.44304 2.08412 -8.04526
upperneck 43.1924 1.55412 2.189
head 17.3521 -1.37494 2.4152
rclavicle 4.95968e-014 -3.33958e-014
rhumerus -38.3346 -10.2591 -69.7457
rradius 34.4486
rwrist -12.1297
rhand -22.6969 10.928
rfingers 7.12502
rthumb 3.73583 -19.019
lclavicle 4.95968e-014 -3.33958e-014
lhumerus -56.6512 19.8687 60.556
lradius 19.3183
lwrist -5.35924
lhand -13.068 20.316
lfingers 7.12502
lthumb 13.0276 49.8892
rfemur 34.2643 4.16209 29.4664
rtibia 23.3687
rfoot -30.1195 8.36485
rtoes -7.85744
lfemur -35.2214 7.83439 4.31942
ltibia 29.8943
lfoot 28.9593 10.2334
ltoes 9.42646
